# xmcd CD database file
#
# Track frame offsets:
#	150
#	23030
#	41477
#	65617
#	84412
#	105572
#	140620
#	161152
#	181840
#	204112
#	224177
#	247072
#
# Disc length: 3516 seconds
#
# Revision: 1
# Processed by: cddbd v1.5.2PL0 Copyright (c) Steve Scherf et al.
# Submitted via: CDex 1.51
#
DISCID=aa0dba0c
DTITLE=Eugene 'HideAway' Bridges - Born to be Blue
DYEAR=1998
DGENRE=Blues
TTITLE0=If You Don't Wanna Love Me
TTITLE1=Little Boy Blue
TTITLE2=Tears of a Fool
TTITLE3=Born to Be Blue
TTITLE4=Learn How to Let You Go
TTITLE5=Aching Heart
TTITLE6=Good Times
TTITLE7=(My Only Reason for Working) Ain't No Reason No More
TTITLE8=Dr. Can You Tell Me 
TTITLE9=Somebody Loves You
TTITLE10=Good Thing
TTITLE11=A Change Is Gonna Come  
EXTD=YEAR: 1998
EXTT0=
EXTT1=
EXTT2=
EXTT3=
EXTT4=
EXTT5=
EXTT6=
EXTT7=
EXTT8=
EXTT9=
EXTT10=
EXTT11=
PLAYORDER=
